<?xml version="1.0" encoding="UTF-8" standalone="no"?>
<!DOCTYPE svg PUBLIC "-//W3C//DTD SVG 1.1//EN" "http://www.w3.org/Graphics/SVG/1.1/DTD/svg11.dtd">
<svg width="100%" height="100%" viewBox="0 0 90 61" version="1.1" xmlns="http://www.w3.org/2000/svg" xmlns:xlink="http://www.w3.org/1999/xlink" xml:space="preserve" xmlns:serif="http://www.serif.com/" style="fill-rule:evenodd;clip-rule:evenodd;stroke-linejoin:round;stroke-miterlimit:2;">
    <g transform="matrix(1,0,0,1,0,-804)">
        <g id="bars-icon" transform="matrix(0.995106,0,0,0.663404,826.413,334.776)">
            <rect x="-830.477" y="707.83" width="90.443" height="90.443" style="fill:none;"/>
            <g transform="matrix(1.00492,0,0,1.50738,-830.477,-504.634)">
                <path d="M33.639,828.46C33.639,827.344 32.734,826.439 31.619,826.439L21.865,826.439C20.75,826.439 19.844,827.344 19.844,828.46L19.844,854.886C19.844,856.002 20.75,856.907 21.865,856.907L31.619,856.907C32.734,856.907 33.639,856.002 33.639,854.886L33.639,828.46ZM51.897,813.289C51.897,812.174 50.992,811.268 49.877,811.268L40.123,811.268C39.008,811.268 38.103,812.174 38.103,813.289L38.103,854.886C38.103,856.002 39.008,856.907 40.123,856.907L49.877,856.907C50.992,856.907 51.897,856.002 51.897,854.886L51.897,813.289ZM70.156,833.638C70.156,832.523 69.25,831.618 68.135,831.618L58.381,831.618C57.266,831.618 56.361,832.523 56.361,833.638L56.361,854.886C56.361,856.002 57.266,856.907 58.381,856.907L68.135,856.907C69.25,856.907 70.156,856.002 70.156,854.886L70.156,833.638Z"/>
            </g>
        </g>
    </g>
</svg>
