<?xml version="1.0" encoding="UTF-8" standalone="no"?>
<!DOCTYPE svg PUBLIC "-//W3C//DTD SVG 1.1//EN" "http://www.w3.org/Graphics/SVG/1.1/DTD/svg11.dtd">
<svg width="100%" height="100%" viewBox="0 0 91 61" version="1.1" xmlns="http://www.w3.org/2000/svg" xmlns:xlink="http://www.w3.org/1999/xlink" xml:space="preserve" xmlns:serif="http://www.serif.com/" style="fill-rule:evenodd;clip-rule:evenodd;stroke-linejoin:round;stroke-miterlimit:2;">
    <g transform="matrix(1,0,0,1,-450,-804)">
        <g id="grid-icon" transform="matrix(0.995106,0,0,0.663404,1276.6,334.776)">
            <rect x="-830.477" y="707.83" width="90.443" height="90.443" style="fill:none;"/>
            <g transform="matrix(1.00492,0,0,1.50738,-1282.89,-504.634)">
                <path d="M484.626,813.226L474.021,813.226L474.021,823.831L484.626,823.831L484.626,813.226ZM484.626,829.051L474.021,829.051L474.021,839.656L484.626,839.656L484.626,829.051ZM484.626,844.876L474.021,844.876L474.021,855.481L484.626,855.481L484.626,844.876ZM500.506,813.226L489.901,813.226L489.901,823.831L500.506,823.831L500.506,813.226ZM500.506,829.051L489.901,829.051L489.901,839.656L500.506,839.656L500.506,829.051ZM500.506,844.876L489.901,844.876L489.901,855.481L500.506,855.481L500.506,844.876ZM516.386,813.226L505.781,813.226L505.781,823.831L516.386,823.831L516.386,813.226ZM516.386,829.051L505.781,829.051L505.781,839.656L516.386,839.656L516.386,829.051ZM516.386,844.876L505.781,844.876L505.781,855.481L516.386,855.481L516.386,844.876Z"/>
            </g>
        </g>
    </g>
</svg>
