<?xml version="1.0" encoding="UTF-8" standalone="no"?>
<!DOCTYPE svg PUBLIC "-//W3C//DTD SVG 1.1//EN" "http://www.w3.org/Graphics/SVG/1.1/DTD/svg11.dtd">
<svg width="100%" height="100%" viewBox="0 0 91 61" version="1.1" xmlns="http://www.w3.org/2000/svg" xmlns:xlink="http://www.w3.org/1999/xlink" xml:space="preserve" xmlns:serif="http://www.serif.com/" style="fill-rule:evenodd;clip-rule:evenodd;stroke-linejoin:round;stroke-miterlimit:2;">
    <g transform="matrix(1,0,0,1,-337,-804)">
        <g id="users-icon" transform="matrix(0.995106,0,0,0.663404,1164.05,334.776)">
            <rect x="-830.477" y="707.83" width="90.443" height="90.443" style="fill:none;"/>
            <g transform="matrix(1.00492,0,0,1.50738,-1169.78,-504.634)">
                <path d="M382.642,810.807C389.238,810.807 395.526,817.883 393.645,826.124C391.917,833.698 387.126,838.005 382.642,837.944C378.151,837.883 373.687,834.277 371.626,826.38C369.547,818.418 376.047,810.807 382.642,810.807ZM406.216,817.607C408.969,817.607 411.594,820.561 410.809,824.001C410.087,827.163 408.087,828.961 406.216,828.936C404.341,828.91 402.477,827.405 401.617,824.108C400.749,820.784 403.462,817.607 406.216,817.607ZM360.57,817.607C363.324,817.607 365.949,820.561 365.163,824.001C364.442,827.163 362.442,828.961 360.57,828.936C358.695,828.91 356.832,827.405 355.971,824.108C355.103,820.784 357.817,817.607 360.57,817.607ZM382.607,840.618C388.419,840.555 391.628,836.548 391.628,836.548C391.628,836.548 404.277,840.351 405.583,846.784C407.232,854.905 395.035,857.872 382.607,857.872C370.18,857.872 357.627,854.116 359.793,846.638C361.748,839.886 373.777,836.48 373.777,836.48C373.777,836.48 377.2,840.676 382.607,840.618ZM406.201,830.052C408.627,830.026 409.967,828.353 409.967,828.353C409.967,828.353 415.247,829.941 415.793,832.626C416.481,836.016 411.389,837.255 406.201,837.255C401.013,837.255 395.773,835.687 396.677,832.565C397.493,829.746 402.515,828.324 402.515,828.324C402.515,828.324 403.944,830.076 406.201,830.052ZM360.555,830.052C362.982,830.026 364.321,828.353 364.321,828.353C364.321,828.353 369.602,829.941 370.147,832.626C370.836,836.016 365.743,837.255 360.555,837.255C355.367,837.255 350.127,835.687 351.031,832.565C351.848,829.746 356.869,828.324 356.869,828.324C356.869,828.324 358.298,830.076 360.555,830.052Z"/>
            </g>
        </g>
    </g>
</svg>
